<svg xmlns="http://www.w3.org/2000/svg" viewBox="0 0 24 24" fill="none" stroke="currentColor" stroke-width="2" stroke-linecap="round" stroke-linejoin="round">
  <!-- Dragon head -->
  <path d="M12 2c-2 0-4 1-5 3l-1 2c-.5 1-.5 2 0 3l1 1c-1 1-1 2-.5 3l1 1c-.5 1 0 2 .5 3l1 1c0 1 .5 2 1.5 2.5"/>
  <!-- Dragon body -->
  <path d="M12 2c2 0 4 1 5 3l1 2c.5 1 .5 2 0 3l-1 1c1 1 1 2 .5 3l-1 1c.5 1 0 2-.5 3l-1 1c0 1-.5 2-1.5 2.5"/>
  <!-- Dragon eye -->
  <circle cx="10" cy="7" r="1"/>
  <!-- Dragon wing -->
  <path d="M6 10c-2 1-4 3-4 5s1 3 2 4"/>
  <path d="M18 10c2 1 4 3 4 5s-1 3-2 4"/>
  <!-- Fire breath -->
  <path d="M9 12l-2 2-1-1"/>
  <path d="M15 12l2 2 1-1"/>
</svg>
